{"title":"Lara Croft Tomb Raider The Cradle of Life","uid":14798774,"size":1290176916,"categoryP":"video","categoryS":"movies","magnet":"?xt=urn:btih:ddddf1cda9ee85b60ce152f68c927cfb95cbd4fc&amp;dn=Lara+Croft+Tomb+Raider+The+Cradle+of+Life&amp;tr=udp%3A%2F%2Ftracker.leechers-paradise.org%3A6969&amp;tr=udp%3A%2F%2Fzer0day.ch%3A1337&amp;tr=udp%3A%2F%2Fopen.demonii.com%3A1337&amp;tr=udp%3A%2F%2Ftracker.coppersurfer.tk%3A6969&amp;tr=udp%3A%2F%2Fexodus.desync.com%3A6969","seeders":4,"leechers":1,"uploader":"dascuba","files":1,"time":1465099284,"description":"Lara Croft Tomb Raider: The Cradle of Life (2003)\r\nPG-13 | 1h 57min | Action, Adventure, Fantasy | 25 July 2003 (USA)\r\nAdventuress Lara Croft goes on a quest to save the mythical Pandora's Box before an evil scientist and recruits a former Marine turned mercenary to assist her.\r\nDirector: Jan de Bont\r\nWriters: Dean Georgaris (screenplay), Steven E. de Souza (story) | \r\nStars: Angelina Jolie, Gerard Butler, Chris Barrie \r\n\r\nGeneral\r\nComplete name                            : TombRaiderCradleofLifeTOMB_RAIDER_CRADLE_OF_LIFE_Title1.mp4\r\nFormat                                   : MPEG-4\r\nFormat profile                           : Base Media\r\nCodec ID                                 : isom (isom/iso2/avc1/mp41)\r\nFile size                                : 1.20 GiB\r\nDuration                                 : 1h 57mn\r\nOverall bit rate mode                    : Variable\r\nOverall bit rate                         : 1 468 Kbps\r\nMovie name                               : TOMB_RAIDER_CRADLE_OF_LIFE\r\nGenre                                    : Action\r\nWriting application                      : Lavf54.6.100\r\n\r\nVideo\r\nID                                       : 1\r\nFormat                                   : AVC\r\nFormat/Info                              : Advanced Video Codec\r\nFormat profile                           :   \r\nFormat settings, CABAC                   : No\r\nFormat settings, ReFrames                : 6 frames\r\nCodec ID                                 : avc1\r\nCodec ID/Info                            : Advanced Video Coding\r\nDuration                                 : 1h 57mn\r\nBit rate                                 : 1 195 Kbps\r\nWidth                                    : 720 pixels\r\nHeight                                   : 404 pixels\r\nDisplay aspect ratio                     : 16:9\r\nFrame rate mode                          : Constant\r\nFrame rate                               : 29.970 (30000/1001) fps\r\nColor space                              : YUV\r\nChroma subsampling                       : 4:2:0\r\nBit depth                                : 8 bits\r\nScan type                                : Progressive\r\nBits/(Pixel*Frame)                       : 0.137\r\nStream size                              : 1 002 MiB (81%)\r\n\r\nAudio\r\nID                                       : 2\r\nFormat                                   : AAC\r\nFormat/Info                              : Advanced Audio Codec\r\nFormat profile                           : LC\r\nCodec ID                                 : 40\r\nDuration                                 : 1h 57mn\r\nBit rate mode                            : Variable\r\nBit rate                                 : 265 Kbps\r\nMaximum bit rate                         : 289 Kbps\r\nChannel(s)                               : 2 channels\r\nChannel(s)_Original                      : 6 channels\r\nChannel positions                        : Front: L C R, Side: L R, LFE\r\nSampling rate                            : 44.1 KHz\r\nFrame rate                               : 43.066 fps (1024 spf)\r\nCompression mode                         : Lossy\r\nStream size                              : 223 MiB (18%)\r\nDefault                                  : Yes\r\nAlternate group                          : 1","torrent":{"xt":"urn:btih:ddddf1cda9ee85b60ce152f68c927cfb95cbd4fc","amp;dn":"Lara+Croft+Tomb+Raider+The+Cradle+of+Life","amp;tr":["udp%3A%2F%2Ftracker.leechers-paradise.org%3A6969","udp%3A%2F%2Fzer0day.ch%3A1337","udp%3A%2F%2Fopen.demonii.com%3A1337","udp%3A%2F%2Ftracker.coppersurfer.tk%3A6969","udp%3A%2F%2Fexodus.desync.com%3A6969"],"infoHash":"ddddf1cda9ee85b60ce152f68c927cfb95cbd4fc","infoHashBuffer":{"type":"Buffer","data":[221,221,241,205,169,238,133,182,12,225,82,246,140,146,124,251,149,203,212,252]},"announce":[],"urlList":[]}}